<?xml version="1.0" standalone="no"?>
<svg xmlns:xlink="http://www.w3.org/1999/xlink" id="wave" style="transform:rotate(180deg); transition: 0.3s" viewBox="0 0 1440 100" version="1.1" xmlns="http://www.w3.org/2000/svg"><defs><linearGradient id="sw-gradient-0" x1="0" x2="0" y1="1" y2="0"><stop stop-color="rgba(255, 249, 234, 1)" offset="0%"/><stop stop-color="rgba(255, 249, 234, 1)" offset="100%"/></linearGradient></defs><path style="transform:translate(0, 0px); opacity:1" fill="url(#sw-gradient-0)" d="M0,60L26.7,58.3C53.3,57,107,53,160,48.3C213.3,43,267,37,320,41.7C373.3,47,427,63,480,68.3C533.3,73,587,67,640,68.3C693.3,70,747,80,800,80C853.3,80,907,70,960,55C1013.3,40,1067,20,1120,16.7C1173.3,13,1227,27,1280,28.3C1333.3,30,1387,20,1440,16.7C1493.3,13,1547,17,1600,30C1653.3,43,1707,67,1760,68.3C1813.3,70,1867,50,1920,50C1973.3,50,2027,70,2080,80C2133.3,90,2187,90,2240,80C2293.3,70,2347,50,2400,46.7C2453.3,43,2507,57,2560,51.7C2613.3,47,2667,23,2720,21.7C2773.3,20,2827,40,2880,51.7C2933.3,63,2987,67,3040,63.3C3093.3,60,3147,50,3200,40C3253.3,30,3307,20,3360,16.7C3413.3,13,3467,17,3520,18.3C3573.3,20,3627,20,3680,16.7C3733.3,13,3787,7,3813,3.3L3840,0L3840,100L3813.3,100C3786.7,100,3733,100,3680,100C3626.7,100,3573,100,3520,100C3466.7,100,3413,100,3360,100C3306.7,100,3253,100,3200,100C3146.7,100,3093,100,3040,100C2986.7,100,2933,100,2880,100C2826.7,100,2773,100,2720,100C2666.7,100,2613,100,2560,100C2506.7,100,2453,100,2400,100C2346.7,100,2293,100,2240,100C2186.7,100,2133,100,2080,100C2026.7,100,1973,100,1920,100C1866.7,100,1813,100,1760,100C1706.7,100,1653,100,1600,100C1546.7,100,1493,100,1440,100C1386.7,100,1333,100,1280,100C1226.7,100,1173,100,1120,100C1066.7,100,1013,100,960,100C906.7,100,853,100,800,100C746.7,100,693,100,640,100C586.7,100,533,100,480,100C426.7,100,373,100,320,100C266.7,100,213,100,160,100C106.7,100,53,100,27,100L0,100Z"/></svg>